<?xml version="1.0" standalone="no"?>
<!DOCTYPE svg PUBLIC "-//W3C//DTD SVG 20010904//EN"
 "http://www.w3.org/TR/2001/REC-SVG-20010904/DTD/svg10.dtd">
<svg version="1.0" xmlns="http://www.w3.org/2000/svg"
 width="256.000000pt" height="256.000000pt" viewBox="0 0 256.000000 256.000000"
 preserveAspectRatio="xMidYMid meet">
<metadata>
Created by potrace 1.11, written by Peter Selinger 2001-2013
</metadata>
<g transform="translate(0.000000,256.000000) scale(0.100000,-0.100000)"
fill="#000000" stroke="none">
<path d="M1638 1983 c-65 -32 -1577 -1007 -1583 -1021 -3 -7 0 -46 6 -85 11
-71 13 -73 78 -137 116 -113 285 -233 440 -311 116 -59 166 -68 231 -45 25 9
81 28 125 42 187 61 331 165 371 269 20 53 -2 36 674 519 245 175 455 329 466
341 19 21 21 29 12 77 -10 61 -22 73 -138 141 -99 60 -251 124 -415 177 -158
50 -216 58 -267 33z m208 -38 c204 -60 380 -134 499 -209 28 -18 57 -35 66
-38 11 -4 19 -24 24 -59 8 -57 14 -47 -72 -119 -7 -5 -17 -10 -23 -10 -5 0
-10 -4 -10 -10 0 -5 -15 -16 -34 -25 -19 -9 -37 -23 -40 -31 -3 -8 -12 -14
-21 -14 -8 0 -15 -4 -15 -10 0 -5 -7 -10 -15 -10 -9 0 -18 -7 -21 -15 -4 -8
-12 -15 -20 -15 -8 0 -14 -4 -14 -10 0 -5 -4 -10 -9 -10 -6 0 -22 -11 -37 -25
-15 -14 -32 -25 -37 -25 -6 0 -17 -7 -26 -15 -31 -30 -76 -65 -84 -65 -4 0
-20 -11 -35 -25 -15 -14 -30 -25 -35 -25 -4 0 -20 -11 -35 -25 -15 -14 -30
-25 -35 -25 -4 0 -20 -11 -35 -25 -15 -14 -32 -25 -39 -25 -7 0 -13 -3 -13 -7
0 -5 -17 -19 -38 -33 -20 -14 -45 -32 -55 -41 -9 -9 -30 -22 -45 -30 -15 -8
-31 -20 -35 -26 -4 -7 -12 -13 -17 -13 -5 0 -21 -11 -36 -25 -15 -14 -33 -25
-39 -25 -7 0 -16 -7 -19 -16 -3 -8 -10 -13 -15 -10 -5 3 -11 -1 -15 -9 -3 -8
-12 -15 -21 -15 -8 0 -15 -4 -15 -10 0 -5 -5 -10 -11 -10 -7 0 -17 -6 -23 -14
-15 -18 -334 -246 -345 -246 -5 0 -12 -7 -15 -16 -3 -8 -10 -13 -15 -10 -5 3
-11 -1 -15 -9 -3 -8 -12 -15 -21 -15 -8 0 -15 -4 -15 -10 0 -5 -7 -10 -15 -10
-8 0 -15 -4 -15 -9 0 -16 -90 -69 -129 -76 -26 -4 -53 0 -90 14 -132 50 -377
212 -511 338 -59 56 -63 62 -75 127 -7 38 -11 74 -9 80 5 11 1476 959 1558
1004 54 29 72 28 212 -13z"/>
<path d="M1183 1627 c-549 -352 -520 -327 -424 -364 25 -10 156 -79 290 -155
l243 -138 487 345 c267 190 497 354 511 364 l25 18 -44 22 c-46 24 -567 231
-579 231 -4 -1 -233 -146 -509 -323z"/>
<path d="M1665 1135 c-943 -671 -875 -621 -875 -644 0 -15 -9 -22 -37 -27 -32
-6 -50 1 -147 51 -61 31 -106 52 -101 47 6 -6 54 -33 108 -61 108 -57 144 -62
197 -30 l35 21 -25 -27 c-24 -27 -24 -28 -3 -23 28 7 1593 1126 1600 1145 3 8
2 28 -3 44 l-9 30 -740 -526z"/>
<path d="M260 931 c0 -6 4 -13 10 -16 6 -3 7 1 4 9 -7 18 -14 21 -14 7z"/>
<path d="M466 793 c-6 -14 -5 -15 5 -6 7 7 10 15 7 18 -3 3 -9 -2 -12 -12z"/>
<path d="M486 782 c-3 -5 1 -9 9 -9 8 0 15 4 15 9 0 4 -4 8 -9 8 -6 0 -12 -4
-15 -8z"/>
<path d="M510 760 c-9 -6 -10 -10 -3 -10 6 0 15 5 18 10 8 12 4 12 -15 0z"/>
<path d="M290 706 c0 -2 8 -10 18 -17 15 -13 16 -12 3 4 -13 16 -21 21 -21 13z"/>
<path d="M635 680 c-3 -5 -3 -14 0 -20 8 -12 32 -13 39 -1 4 5 -3 7 -14 4 -22
-6 -28 12 -7 20 9 4 9 6 0 6 -6 1 -15 -3 -18 -9z"/>
<path d="M384 636 c27 -22 118 -77 105 -63 -3 4 -34 25 -70 47 -35 22 -51 30
-35 16z"/>
<path d="M680 645 c-7 -9 -9 -15 -4 -14 26 5 45 -2 38 -13 -5 -8 0 -7 11 2 18
15 18 15 -1 19 -10 2 -22 8 -25 13 -3 5 -12 2 -19 -7z"/>
</g>
</svg>
